<?xml version="1.0" standalone="no"?>
<!DOCTYPE svg PUBLIC "-//W3C//DTD SVG 20010904//EN"
 "http://www.w3.org/TR/2001/REC-SVG-20010904/DTD/svg10.dtd">
<svg version="1.0" xmlns="http://www.w3.org/2000/svg"
 width="1216.000000pt" height="1216.000000pt" viewBox="0 0 1216.000000 1216.000000"
 preserveAspectRatio="xMidYMid meet">
<metadata>
Created by potrace 1.14, written by Peter Selinger 2001-2017
</metadata>
<g transform="translate(0.000000,1216.000000) scale(0.100000,-0.100000)"
fill="#000000" stroke="none">
<path d="M1470 12143 c-153 -31 -282 -148 -331 -301 -17 -55 -18 -258 -18
-5767 l0 -5710 25 -75 c14 -41 29 -77 32 -80 4 -3 23 -25 42 -50 19 -25 45
-54 59 -65 23 -19 118 -76 124 -74 1 1 22 -4 45 -11 63 -17 197 -10 265 12 31
11 57 25 57 31 0 5 3 7 6 4 11 -11 58 32 478 438 271 262 571 552 666 645 359
349 478 463 491 471 8 5 10 9 6 9 -4 0 9 15 30 32 20 18 67 62 103 98 37 36
178 173 315 305 136 132 301 292 366 355 129 125 367 356 562 544 67 65 143
138 168 163 l47 45 31 -28 c17 -16 63 -58 102 -94 40 -36 92 -84 116 -108 25
-23 46 -42 48 -42 2 0 26 -21 53 -47 27 -27 80 -76 118 -109 38 -34 92 -84
121 -110 54 -52 98 -91 233 -214 46 -41 104 -95 131 -120 26 -25 80 -74 120
-110 39 -36 84 -76 99 -90 15 -14 67 -62 116 -107 49 -44 101 -92 115 -105 14
-12 65 -59 113 -103 48 -44 100 -91 115 -105 15 -14 74 -68 131 -120 57 -52
124 -114 148 -138 25 -23 46 -42 48 -42 2 0 14 -10 26 -22 13 -13 68 -63 122
-113 54 -49 113 -103 131 -120 17 -16 72 -66 120 -110 49 -44 103 -93 121
-110 17 -16 69 -64 114 -105 46 -41 104 -95 131 -120 26 -25 78 -73 116 -107
37 -34 90 -82 118 -107 27 -25 53 -46 58 -46 4 0 5 -4 2 -10 -3 -5 -1 -10 5
-10 6 0 23 -12 38 -28 45 -43 163 -152 166 -152 2 0 28 -24 58 -53 74 -70 87
-80 139 -107 24 -12 53 -27 64 -33 29 -16 222 -19 270 -5 86 26 235 137 235
175 0 7 4 13 9 13 14 0 75 163 64 174 -3 2 0 14 7 25 6 12 7 21 2 21 -9 0 -7
64 3 80 3 6 2 10 -3 10 -10 0 -7 54 3 71 4 5 2 9 -2 9 -5 0 -8 17 -7 37 3 50
4 95 4 113 -1 8 1 32 2 53 2 20 1 37 -2 37 -6 0 -3 89 5 108 2 6 0 12 -5 12
-5 0 -7 10 -4 22 4 21 5 51 4 88 -1 8 1 32 2 53 2 20 1 37 -2 37 -6 0 -3 89 5
108 2 6 0 12 -5 12 -5 0 -7 10 -4 23 4 20 5 50 4 87 -1 8 1 32 2 53 2 20 1 37
-2 37 -6 0 -3 89 5 107 2 7 0 13 -5 13 -5 0 -7 10 -4 22 4 21 5 51 4 88 -1 8
1 32 2 53 2 20 1 37 -2 37 -6 0 -3 89 5 108 2 6 -1 12 -8 12 -8 0 -8 3 2 9 7
5 9 11 4 14 -5 3 -8 20 -6 36 2 17 4 45 6 62 2 16 0 32 -4 34 -3 3 -5 17 -2
32 8 59 9 84 3 88 -8 5 -4 60 5 74 3 6 2 11 -3 11 -10 0 -8 42 3 59 3 6 2 11
-2 11 -8 0 -7 135 2 157 2 7 1 13 -3 13 -7 0 -6 43 1 118 2 18 0 35 -3 37 -8
5 -4 60 5 74 3 6 2 11 -3 11 -10 0 -7 54 3 71 4 5 2 9 -3 9 -10 0 -9 30 1 47
4 6 4 14 -1 17 -5 3 -7 17 -5 33 8 82 9 94 2 98 -3 3 -4 17 -2 32 4 31 6 75 3
83 -6 17 -4 60 3 60 6 0 6 5 1 12 -5 7 -8 24 -7 38 1 14 4 40 6 58 2 18 0 35
-4 37 -3 3 -5 17 -2 32 8 59 9 84 3 88 -8 5 -4 60 5 74 3 6 2 11 -3 11 -10 0
-8 42 3 59 3 6 2 11 -2 11 -8 0 -7 135 2 157 2 7 1 13 -3 13 -7 0 -6 43 1 118
2 18 0 35 -3 37 -8 5 -4 60 5 74 3 6 2 11 -3 11 -10 0 -7 54 3 71 4 5 2 9 -3
9 -10 0 -9 30 1 47 4 6 4 14 -1 17 -5 3 -7 19 -5 35 2 17 4 45 6 62 2 16 0 32
-4 34 -3 3 -4 17 -2 32 4 31 6 75 3 83 -6 17 -4 60 3 60 6 0 6 5 1 13 -5 6 -8
23 -7 37 1 14 4 40 6 58 2 18 0 35 -4 37 -3 3 -5 17 -2 32 8 59 9 84 3 88 -8
5 -4 60 5 74 3 6 2 11 -3 11 -10 0 -8 42 3 59 3 6 2 11 -2 11 -8 0 -7 135 2
157 2 7 1 13 -3 13 -7 0 -6 43 1 118 2 18 0 35 -3 37 -8 5 -4 60 5 74 3 6 2
11 -3 11 -10 0 -7 54 3 71 4 5 2 9 -3 9 -10 0 -9 30 1 47 4 6 4 14 -1 17 -5 3
-7 17 -5 33 8 82 9 94 2 98 -3 3 -4 17 -2 32 4 31 6 75 3 83 -6 17 -4 60 3 60
6 0 6 5 1 13 -5 6 -8 23 -7 37 1 14 4 40 6 58 2 18 0 35 -4 37 -3 3 -5 17 -2
32 8 59 9 84 3 88 -8 5 -4 60 5 74 3 6 2 11 -3 11 -10 0 -8 42 3 59 3 6 2 11
-2 11 -8 0 -7 135 2 157 2 7 1 13 -3 13 -7 0 -6 43 1 118 2 18 0 35 -3 37 -8
5 -4 60 5 74 3 6 2 11 -3 11 -10 0 -7 54 3 71 4 5 2 9 -3 9 -10 0 -9 30 1 47
4 6 4 14 -1 17 -5 3 -7 20 -5 38 2 18 5 46 6 61 2 16 0 30 -4 32 -3 3 -5 17
-2 32 8 58 9 84 4 88 -7 4 -4 132 3 152 3 7 2 13 -2 13 -8 0 -6 86 3 108 2 6
1 12 -3 12 -6 0 -7 18 -3 77 1 10 50 26 126 39 17 3 37 8 45 11 18 8 17 7 60
17 19 5 40 11 45 14 6 4 16 7 22 8 32 5 206 74 275 110 27 13 55 24 63 24 8 0
15 4 15 9 0 5 16 15 35 22 19 7 35 17 35 21 0 4 3 7 8 6 19 -7 274 167 382
260 68 58 235 225 275 275 17 20 45 53 63 74 17 21 35 46 38 56 3 9 10 17 15
17 5 0 9 5 9 10 0 6 9 20 19 32 42 44 172 274 221 390 17 40 38 85 46 101 8
15 12 27 8 27 -3 0 -1 7 6 15 7 8 10 15 6 15 -4 0 0 13 8 29 8 15 17 39 20 52
3 13 10 40 16 59 12 39 11 34 39 150 11 47 23 103 26 125 3 22 8 49 10 61 19
89 27 481 12 594 -4 30 -10 78 -13 105 -3 28 -8 53 -10 56 -2 4 -6 24 -10 45
-9 62 -65 278 -75 289 -5 5 -9 22 -9 37 0 15 -4 28 -8 28 -5 0 -15 23 -22 50
-7 28 -17 50 -22 50 -4 0 -8 7 -8 16 0 26 -123 266 -186 362 -146 226 -356
457 -544 600 -52 40 -99 76 -105 80 -99 76 -445 260 -477 253 -5 0 -8 4 -8 9
0 6 -6 10 -12 9 -7 -1 -26 4 -43 11 -16 7 -33 14 -37 14 -3 1 -9 4 -13 8 -4 4
-13 4 -20 2 -7 -3 -16 -1 -20 5 -3 6 -17 11 -31 11 -13 0 -24 4 -24 8 0 4 -12
9 -26 10 -15 1 -32 6 -39 12 -6 5 -14 8 -17 5 -2 -3 -20 0 -39 6 -19 6 -45 12
-59 15 -14 2 -36 6 -50 8 -14 3 -25 5 -25 6 0 3 -47 10 -165 25 -98 13 -279
15 -1720 20 -2984 10 -4582 19 -5514 28 -82 1 -175 -3 -206 -10z"/>
</g>
</svg>
