<?xml version="1.0" standalone="no"?>
<!DOCTYPE svg PUBLIC "-//W3C//DTD SVG 20010904//EN"
 "http://www.w3.org/TR/2001/REC-SVG-20010904/DTD/svg10.dtd">
<svg version="1.0" xmlns="http://www.w3.org/2000/svg"
 width="1184.000000pt" height="1184.000000pt" viewBox="0 0 1184.000000 1184.000000"
 preserveAspectRatio="xMidYMid meet">
<metadata>
Created by potrace 1.14, written by Peter Selinger 2001-2017
</metadata>
<g transform="translate(0.000000,1184.000000) scale(0.100000,-0.100000)"
fill="#000000" stroke="none">
<path d="M1440 11824 c-173 -46 -299 -175 -345 -350 -13 -52 -15 -645 -13
-5579 l3 -5520 24 -60 c13 -33 28 -63 33 -66 5 -3 10 -10 10 -15 1 -13 48 -75
78 -102 34 -32 107 -82 118 -82 5 0 23 -7 41 -16 46 -23 85 -29 176 -28 157 1
235 38 380 179 40 39 166 161 281 272 115 111 274 265 354 343 80 77 237 229
349 338 112 108 241 233 286 277 45 44 192 186 326 315 133 129 282 273 330
320 119 116 458 443 491 473 15 14 24 28 21 31 -4 3 -2 6 4 6 6 0 56 44 111
98 378 367 383 372 400 363 10 -5 42 -33 73 -63 31 -29 78 -73 105 -97 27 -24
92 -83 144 -131 52 -48 112 -103 133 -121 22 -19 58 -52 81 -74 23 -22 82 -76
130 -120 49 -44 105 -96 126 -115 21 -19 75 -69 120 -110 46 -41 112 -102 148
-135 106 -98 126 -116 213 -195 46 -41 100 -91 120 -110 20 -19 74 -69 119
-110 46 -41 98 -88 116 -105 17 -16 69 -64 114 -105 46 -41 98 -88 115 -105
18 -16 73 -66 121 -110 48 -44 105 -96 126 -116 20 -20 59 -55 85 -79 56 -49
210 -189 264 -240 20 -19 57 -53 81 -75 45 -40 228 -208 279 -255 15 -14 62
-56 104 -95 43 -38 94 -86 115 -105 21 -19 66 -60 100 -90 33 -30 70 -63 81
-72 10 -10 19 -15 19 -10 0 4 4 2 8 -4 8 -11 102 -53 136 -60 110 -22 218 -12
305 28 25 12 49 20 54 20 4 -1 7 3 7 8 0 6 5 10 10 10 6 0 18 8 29 18 10 9 31
28 48 42 48 41 110 154 128 234 9 40 15 77 14 82 -1 5 -1 1505 0 3334 l1 3326
59 12 c62 13 172 45 232 67 20 8 39 11 43 8 3 -4 6 -1 6 5 0 7 6 12 14 12 28
0 266 112 365 171 34 22 67 39 71 39 4 0 10 7 14 15 3 8 11 15 17 15 18 0 166
109 225 167 18 17 34 29 36 27 4 -3 222 218 248 252 8 10 33 42 55 69 122 150
257 383 335 580 29 73 70 194 71 212 1 5 5 15 9 23 4 8 11 31 14 50 3 19 12
59 20 88 8 29 15 55 15 57 1 3 1 6 2 8 0 1 2 18 4 37 3 19 7 51 10 70 15 106
20 181 20 330 0 152 -9 310 -19 342 -3 7 -7 31 -10 53 -3 22 -9 60 -15 85 -5
25 -13 59 -16 75 -8 40 -13 60 -15 60 -1 0 -3 8 -5 17 -11 60 -98 299 -121
336 -8 12 -12 22 -10 22 17 0 -204 380 -225 388 -5 2 -9 9 -9 15 0 7 -12 26
-28 42 -15 17 -43 51 -62 75 -58 75 -209 232 -280 289 -14 11 -32 27 -40 34
-28 26 -192 147 -199 147 -4 0 -16 8 -27 18 -10 9 -32 24 -49 32 -16 8 -32 17
-35 20 -13 13 -243 130 -255 130 -3 0 -24 9 -48 20 -23 11 -96 37 -162 59
-109 36 -135 43 -200 56 -38 8 -60 13 -60 16 0 1 -13 3 -30 4 -16 2 -30 4 -30
5 0 1 -9 3 -20 5 -11 1 -42 6 -69 10 -141 21 -288 22 -2551 30 -1743 6 -2547
10 -3975 19 -590 4 -703 2 -750 -10z"/>
</g>
</svg>
